<?xml version="1.0" encoding="UTF-8"?>
<svg id="Layer_1" xmlns="http://www.w3.org/2000/svg" version="1.1" viewBox="0 0 191.9 195.2">
  <!-- Generator: Adobe Illustrator 29.7.1, SVG Export Plug-In . SVG Version: 2.1.1 Build 8)  -->
  <defs>
    <style>
      .st0 {
        fill: #16666a;
      }
    </style>
  </defs>
  <path class="st0" d="M35.7,144.9c-5.1-.9-3.3-8.4-2.3-11.8,2.2-7.5,7.9-13.5,14.8-17.1-10.8-12.4,1.7-31,17.3-25,10.3,4,12.7,17.3,5.5,25.3.9,0,1.7.6,2.4,1,3,1.8,5.2,5.6,8.5,2.9-10.3-9-6.3-26.8,6.7-30.6,18.8-5.5,31.6,16.6,18.3,30.6,3.3,3.4,6.6-3.5,10.4-3.9-7.1-7.9-4.7-21.4,5.5-25.3,15.8-6,28.1,12.7,17.3,25.3,8.6,3.5,15.4,13.3,15.9,22.5.1,2.2-.5,6.1-3.4,6.1h-26.2c.3,3.1,1.6,6.7-1.4,8.9l-61.2.2c-3.8-1.5-2.4-5.9-2.1-9.1h-26.2ZM94.1,95.9c-15,.2-14.2,24.2,2.6,21.6,11.7-1.8,11.2-21.8-2.6-21.6ZM58.2,97.2c-8.9,1.5-8.7,15,0,16.2,13.4,1.9,12.5-18.3,0-16.2ZM122.6,111.1c7.4,7.9,19.7-3.5,12.1-11.4-7.5-7.8-19.4,3.7-12.1,11.4ZM40.1,137.6h23.9c2.1-4.5,5.2-8.2,8.4-12-11.2-10.1-30.4-2.8-32.3,12ZM148.4,137.6c-2-14.8-21-22.2-32.3-12,3.1,3.8,6.1,7.6,8.4,12h23.9ZM119.2,146.8c-4.4-28.6-45.6-28.6-50.1,0h50.1Z"/>
  <path class="st0" d="M125.9,19.4c1.6,1.6.8,5.1.5,7.3-.5,3.1-1.3,6.7-2.1,9.8-5.5,22.1-19,51.8-46.5,34.8-2.4,3-4.4,12.6-9.4,10.6s3.2-12.8,4.4-16.3c-4-7.7-4.9-15.6-.7-23.5,9.4-17.4,33.2-6.4,46-19.1,1.8-1.8,4.3-7.1,7.8-3.5ZM117.9,32.5c-3.6,1.4-7.1,3-10.9,3.9-6.6,1.5-14,1.1-20.3,2.9-8.7,2.4-11.9,11.7-8.8,19.6l8-8.2c2.7-2.4,18.4-11,18.4-3,0,4-6.2,4.3-9.2,5.7-4.9,2.3-9.8,7.2-12.4,11.8,4.5,3.6,9.9,4.6,15.4,2.6s6.7-4.9,9.2-8.6c5.4-8.1,8.9-17.3,10.7-26.8Z"/>
  <path class="st0" d="M102.1,193h-12.1l-10.1-1.4C40.4,184.8,8.8,153.3,2.1,113.6l-1.4-10.1c.2-4.1-.3-8.4,0-12.5C5.8,8.6,108.6-29,165.7,31.4c55.8,58.9,16.7,156.7-63.6,161.6ZM90.8,6.8C20.3,11-18.8,91.9,22.4,149.8c40.8,57.3,128.8,48.1,157-16.2S158,2.7,90.8,6.8Z"/>
</svg>