<?xml version="1.0" encoding="UTF-8"?>
<svg id="Layer_1" xmlns="http://www.w3.org/2000/svg" version="1.1" viewBox="0 0 384 384">
  <!-- Generator: Adobe Illustrator 29.7.1, SVG Export Plug-In . SVG Version: 2.1.1 Build 8)  -->
  <defs>
    <style>
      .st0 {
        fill: #5f0085;
      }
    </style>
  </defs>
  <path class="st0" d="M39.6,151.9c-12.8,45.4-3.7,96.9,23.1,135.3,4.8-.6,9.6-1.8,14.4-2,15.1-1,34.5-.6,49.9,0s6.9,1.1,10.2,1.4c8-14.1,19.9-22.7,36.5-23.8,15.5-1,39.1-1,54.6,0,15.5,1,29.2,9.3,37.2,23.8,3.2-.1,7-1.3,10.2-1.4,15.4-.6,34.7-1,49.9,0s10.2,1.4,15.1,2.3c30.9-47.2,37.1-105.9,15.2-158.3-17.8-42.6-52.7-74.9-95.3-92.2-3.7-4.9-.3-9,5.6-7.9s20,9,25.8,12.4c91.4,54,114.9,176.4,49.9,260.8-72.5,93.9-216.3,90.6-285.1-5.9-29.5-41.3-39.3-93.8-28.3-143.4-10.9-9.2-19.5-19.5-22.1-33.8C.5,89.1,20.7,58,43.1,39.8,77.6,11.9,125.6,3.4,165.2,26.7c3.8,2.3,13.1,7.3,6.5,12.3s-14.4,4.8-18.8,6.9c-43,19.7-33.3,61.2-63.3,86.7-13.8,11.7-32.1,16.4-49.8,19.2h-.3,0ZM156,32.9c-34.4-16.5-72.5-10.9-102.6,11.3C23.4,66.3,5.5,96.2,19,126.6c13.5,30.5,7.6,12.5,11.4,15.1s.7,1.3,1.6,0c1.6-2.4,3.9-11.7,5.5-15.5,5.2-12.4,12.5-26.1,20.7-36.8,2.5-3.4,5.4-8.9,10.2-7.3,8.7,2.5-4.8,16.5-7.3,20.4-7.8,12.3-14.4,25.4-18.6,39.2,22.4-4.5,41.3-12.3,53-32.8,16.8-29.5,14.4-52.2,49.3-70.3,1-.6,12-4.4,11.1-5.5h.1ZM233.1,358.4c0-25.4-4.5-53.9,21.7-68.1-2.5-9.3-14.4-16.4-23.7-17.3-14.7-1.4-43.6-1.3-58.4,0-14.8,1.3-22.6,7.6-25.1,17.8,26.6,13.4,21.4,42.6,21.7,67.7,21,3.4,42.7,3.4,63.9,0h-.1ZM159.1,356v-34.5c0-.7-2.4-7.6-3-8.7-4.9-10.3-15.9-16.5-26.9-17.3-14.9-1.1-39.5-1-54.6,0-2,0-3.8.8-5.8.8,22.4,29.3,54.7,49.8,90.2,59.8h0ZM243.3,322.3c-1.3,10.4,1,23.1,0,33.8,35.5-9.6,68.1-30.5,90.2-59.8-2,0-3.8-.7-5.8-.8-15.1-1-38.8-1-53.7,0-14.8,1-28.9,11.4-30.7,26.9h0Z"/>
  <path class="st0" d="M196.3,182.2c48.1-6.5,42.9,65.1,9,69.6-38.2,5.1-49.3-64.3-9-69.6h0ZM201.7,191.6c-33.3.4-23.4,56.3,4.1,49.8,18.6-4.4,24.8-50.2-4.1-49.8Z"/>
  <path class="st0" d="M98.2,204.9c46.8-5.6,42.2,68.9,4.1,70.1-35.1,1-45.4-65-4.1-70.1ZM98.2,214.9c-27.3,4.1-18.2,51.3,4.4,50.2,23.5-1.1,30.6-55.4-4.4-50.2h0Z"/>
  <path class="st0" d="M320,266.5c-13.3,13.5-33.3,9.7-43.1-5.6-15.8-24.8-2.8-60.9,30.3-55.8,28.5,4.4,30,44,12.8,61.5h0ZM312.9,259.4c11-11,12.4-40.7-5.9-44.4-24.5-5.1-32.6,19.9-23,38.5,5.9,11.6,19,15.8,28.9,5.9h0Z"/>
</svg>