<?xml version="1.0" encoding="UTF-8"?>
<svg id="Layer_1" xmlns="http://www.w3.org/2000/svg" version="1.1" viewBox="0 0 191.3 195.2">
  <!-- Generator: Adobe Illustrator 29.7.1, SVG Export Plug-In . SVG Version: 2.1.1 Build 8)  -->
  <defs>
    <style>
      .st0 {
        fill: #8b2f30;
      }
    </style>
  </defs>
  <path class="st0" d="M138.2,21.8c3.1,4.9,1.3,10.3.4,15.3-4.5,21.6-18.9,35.5-41.8,29.2-2.2,0-1.3,10.8-1.3,13,10.3-.9,34.6,5.8,36.4,18-1.3,16.6,1.8,33.7.9,49.9-.9,16.2-4.5,22.9-20.7,26.5-16.2,3.6-54.4,1.8-56.2-19.3-1.8-21.1.9-40,.4-58.9,5.8-12.1,20.2-16.2,32.4-16.6,3.1-.9,0-9-3.6-9.9-3.6-.9-9.9,2.7-14.4,2.7-14.4,0-23.8-16.2-27-28.8-3.1-12.6,1.8,0,2.2,0h16.2c1.8,0,10.8,3.1,13,4,4,1.8,7.2,4.5,9.4,8.5,2.2,4,2.7,9.9,5.4,9.9s-.9-9-1.3-10.3c-2.2-14.8,10.8-21.6,23.4-23.8,12.6-2.2,18.9.9,24.7-9.4h1.3ZM132.4,34.4c-11.2,2.2-23.4.9-33.3,8.1-9.9,7.2-7.6,6.3-4.5,10.8,3.1,4.5,1.3,0,2.2-.4,3.1-2.2,4.9-6.3,9.4-6.7l2.2,3.6c0,2.7-10.8,9-8.5,10.8,18.4,3.1,30.1-9,32.8-26.5l-.4.4ZM78.9,59.1c-4.5-9.4-17.1-9.4-26.5-9.9,1.8,9,11.2,19.3,20.7,16.2l-1.8-1.3c-.9-5.8,2.7-4.9,7.2-4.9h.4ZM95.5,85.6v15.3c0,1.8-5.4,1.8-5.4,0v-15.3c-1.3-1.8-4.9-.4-7.2,0-7.6,1.3-19.3,5.8-20.7,14.4.4,9,24.7,16.2,32.4,16.2s33.3-7.6,33.3-17.1-22.9-17.1-30.1-14.8l-1.3,1.3h-.9ZM126.1,111.7c-15.7,10.3-37.3,12.1-54.4,4.9-17.1-7.2-9.4-5.4-9.9-4.9-2.2,9,5.8,14.8,13,17.5,13.9,4.5,35.1,4,46.8-4.9,11.7-9,5.4-5.4,4.5-12.1v-.4ZM126.1,130.2c-5.4,2.2-10.3,5.4-16.2,6.7-11.7,3.1-22.5,2.7-34.2-.4-11.7-3.1-9.4-4-13.9-6.3-1.8,9.4,5.4,14.4,13,17.5,16.2,5.8,39.1,3.6,52.2-8.1,0,0-.9-9.4-.9-9.4ZM60.9,149.1c-1.8,12.6,14.8,18.4,25.2,19.3,14.4,1.3,30.6-.9,40.9-11.2-2.2-2.7-1.3-5.4-1.8-8.5-14.4,9.4-35.5,10.8-51.7,5.8-16.2-4.9-12.1-5.4-13-4.9l.4-.4Z"/>
  <path class="st0" d="M101.5,193.1h-12.1l-10.1-1.4C39.8,185,8.2,153.5,1.5,113.8L0,103.7c.2-4.1-.3-8.4,0-12.5C5.2,8.8,108-28.8,165.1,31.6s16.7,156.7-63.6,161.6ZM90.2,7C19.6,11.2-19.4,92.1,21.8,150s128.8,48.1,157-16.2C205.9,71.8,157.4,2.9,90.2,7Z"/>
</svg>