<?xml version="1.0" encoding="UTF-8"?>
<svg id="Layer_1" xmlns="http://www.w3.org/2000/svg" version="1.1" viewBox="0 0 18 18">
  <!-- Generator: Adobe Illustrator 29.7.1, SVG Export Plug-In . SVG Version: 2.1.1 Build 8)  -->
  <path d="M16,15.1c-.1,1.1-1,2.1-2.2,2.2H3.6c-1.2-.1-2.1-1-2.2-2.2V2.9c.1-1.2,1.1-2.1,2.2-2.2h10.2c3.3.4,1.9,4,2.2,6.1s.4.7.5.9c.6,1.4.7,2.9,0,4.4s-.7.9-.6,1.5,1.6,1.6,1.9,1.9c.2.3,0,.8-.3.8s-1.1-1-1.5-1.2ZM4.3,1.6c-1,0-1.8.4-1.9,1.4v11.7c0,1.2.8,1.7,1.9,1.6V1.6ZM15.1,5.8v-2.7c0-.7-.7-1.5-1.4-1.5H5.3v14.7h8.4c.7,0,1.4-.8,1.4-1.5v-.7l-1,.6c-3.1,1.7-7.2-.3-7.8-3.8s4-7.9,8-5.6.7.5.7.5ZM11,5.6c-2.3.3-4,2.5-3.8,4.7.3,3.5,4.5,5.3,7.2,3.1s1.1-8.3-3.4-7.8Z"/>
  <path d="M13,3.5c0,0-.2.1-.3.1-1.6.1-3.4-.1-5,0-.6,0-.6-.9,0-1,1.6.1,3.4-.2,5,0s.6.6.3.8Z"/>
  <path d="M14.9,10.3c-.2.2-.7.1-.8-.2s0-.6-.1-.9c-.3-.8-1-1.5-1.9-1.6s-.5,0-.7-.1c-.4-.3-.1-.8.3-.9,1.2,0,2.6.9,3.1,1.9s.5,1.5.2,1.9Z"/>
</svg>