<?xml version="1.0" encoding="UTF-8"?>
<svg id="Layer_1" xmlns="http://www.w3.org/2000/svg" version="1.1" viewBox="0 0 18 18">
  <!-- Generator: Adobe Illustrator 29.7.1, SVG Export Plug-In . SVG Version: 2.1.1 Build 8)  -->
  <defs>
    <style>
      .st0 {
        fill: #fff;
      }
    </style>
  </defs>
  <path class="st0" d="M13.5,13.3c0,.8-.7,1.5-1.5,1.5h-7.2c-.8,0-1.5-.7-1.6-1.6V4.7c0-.8.7-1.5,1.6-1.5h7.2c2.3.3,1.3,2.8,1.6,4.3s.3.5.3.6c.4,1,.5,2.1,0,3.1s-.5.6-.4,1.1,1.1,1.1,1.3,1.3c.2.2,0,.5-.2.6s-.8-.7-1.1-.9ZM5.2,3.9c-.7,0-1.3.3-1.4,1v8.2c0,.8.6,1.2,1.4,1.1V3.9ZM12.8,6.8v-1.9c0-.5-.5-1-1-1h-5.9v10.3h5.9c.5,0,1-.6,1-1v-.5l-.7.4c-2.2,1.2-5-.2-5.5-2.7s2.8-5.6,5.6-3.9.5.3.5.3ZM9.9,6.6c-1.6.2-2.8,1.7-2.7,3.3.2,2.4,3.1,3.7,5,2.2s.8-5.8-2.4-5.5Z"/>
  <path class="st0" d="M11.3,5.1c0,0-.1,0-.2,0-1.1.1-2.4,0-3.5,0-.4,0-.4-.6,0-.7,1.1,0,2.4-.1,3.5,0s.4.4.2.6Z"/>
  <path class="st0" d="M12.7,10c-.2.2-.5,0-.6-.2s0-.4,0-.6c-.2-.6-.7-1-1.3-1.2s-.3,0-.5,0c-.3-.2-.1-.6.2-.6.9,0,1.8.6,2.2,1.4s.4,1.1.1,1.3Z"/>
</svg>