<?xml version="1.0" encoding="UTF-8"?>
<svg id="Layer_1" xmlns="http://www.w3.org/2000/svg" version="1.1" viewBox="0 0 96 96">
  <!-- Generator: Adobe Illustrator 29.7.1, SVG Export Plug-In . SVG Version: 2.1.1 Build 8)  -->
  <defs>
    <style>
      .st0 {
        fill: #b18208;
      }
    </style>
  </defs>
  <path class="st0" d="M65.1,22.2l11.4,20c1.2-.2,1.9-1.3,3.3-1.3,2.2,0,3.5,2.2,4.4,3.9s1.2,2.8-.2,4.5l-29.1,17.1c-2.3,1.3-3.9,1.6-5.6-.6s-2.8-4.2-1.3-6.3,2.5-1.5,2.4-2.1-2.4-4.5-2.8-4.8-.4-.5-.6-.5l-35.9,20.8c-1.7.5-2.7.2-3.8-1.1s-3.4-5-1.3-7l36.4-21.3-3.2-5.8c-4,2.7-6.1,1.2-7.9-2.7s-.7-3.2,1-4.5l30.3-17.7c2.9-.6,4,1.5,5.1,3.6s.7,4.4-2.3,5.8h-.2ZM63.6,15.4l-30.1,17.2-.2.4c.2.7,1.6,3.3,2.2,3.3l29.6-17.2.5-.6-1.8-3h-.1ZM62.8,23.7l-21.6,12.6,11.4,19.6,21.6-12.2s-11.4-20-11.4-20ZM80.3,43.5l-30.2,17.3c-.2,0-.2.4,0,.6,0,.4,1.8,3.2,2.1,3.2l30.1-17.5-1.8-3.6h-.1ZM45.5,49.6c0-.2-1.5-3.2-1.7-3.4s0-.2-.2-.2h-.5L7.6,66.5c-.2.4,1.5,4,2.4,3.5l35.4-20.6h0Z"/>
  <path class="st0" d="M93.8,85.8c-.4.2-.7.5-1.1.6h-53.5c-1,0-2.1-1-2.3-1.9s-.2-3.9,0-4.8c.2-1.5,1.6-2.5,3-2.7h52c1,0,1.7.6,2.3,1.3,1,1.5,1,6.2-.4,7.4h-.1ZM92.1,83.9v-3.8l-.4-.4h-51.9l-.4.4v3.8h52.6Z"/>
</svg>