<?xml version="1.0" encoding="UTF-8"?>
<svg id="Layer_1" xmlns="http://www.w3.org/2000/svg" version="1.1" viewBox="0 0 191.3 195.2">
  <!-- Generator: Adobe Illustrator 29.7.1, SVG Export Plug-In . SVG Version: 2.1.1 Build 8)  -->
  <defs>
    <style>
      .st0 {
        stroke: #b18208;
        stroke-miterlimit: 10;
        stroke-width: 2px;
      }

      .st0, .st1 {
        fill: #b18208;
      }
    </style>
  </defs>
  <path class="st0" d="M113.9,44l18.8,32.9c2-.4,3.2-2.2,5.4-2.2,3.6,0,5.8,3.6,7.2,6.4s2,4.6-.4,7.4l-47.9,28.1c-3.8,2.2-6.4,2.6-9.2-1s-4.6-7-2.2-10.4,4.2-2.4,4-3.4-4-7.4-4.6-8-.6-.8-1-.8l-59.1,34.3c-2.8.8-4.4.4-6.2-1.8s-5.6-8.2-2.2-11.6l59.8-35.1-5.2-9.6c-6.6,4.4-10,2-13-4.4-3-6.4-1.2-5.2,1.6-7.4l49.9-29.1c4.8-1,6.6,2.4,8.4,6,1.8,3.6,1.2,7.2-3.8,9.6h-.4ZM111.5,32.8l-49.5,28.3-.4.6c.4,1.2,2.6,5.4,3.6,5.4l48.7-28.3.8-1-3-5h-.2ZM110.1,46.6l-35.5,20.7,18.8,32.3,35.5-20.1s-18.8-32.9-18.8-32.9ZM138.9,79.1l-49.7,28.5c-.4,0-.4.6,0,1,0,.6,3,5.2,3.4,5.2l49.5-28.7-3-6h-.2ZM81.6,89c0-.4-2.4-5.2-2.8-5.6s0-.4-.4-.4h-.8l-58.3,33.9c-.4.6,2.4,6.6,4,5.8l58.3-33.9h0v.2Z"/>
  <path class="st0" d="M161.2,148.7c-.6.4-1.2.8-1.8,1h-88c-1.6,0-3.4-1.6-3.8-3.2-.4-1.6-.4-6.4,0-8,.4-2.4,2.6-4.2,5-4.4h85.6c1.6,0,2.8,1,3.8,2.2,1.6,2.4,1.6,10.2-.6,12.2h0l-.2.2ZM158.4,145.5v-6.2l-.6-.6h-85.4l-.6.6v6.2h86.6Z"/>
  <path class="st1" d="M101.5,193.2h-12.1l-10.1-1.4C39.8,185,8.2,153.6,1.5,113.9L0,103.8c.2-4.1-.3-8.4,0-12.5C5.2,8.9,108-28.7,165.1,31.7c55.8,58.9,16.7,156.7-63.6,161.6ZM90.2,7.1C19.6,11.3-19.4,92.2,21.8,150.1c40.8,57.3,128.8,48.1,157-16.2C205.9,71.9,157.4,3,90.2,7.1Z"/>
</svg>