<?xml version="1.0" encoding="UTF-8"?>
<svg id="Layer_1" xmlns="http://www.w3.org/2000/svg" version="1.1" viewBox="0 0 191.3 195.2">
  <!-- Generator: Adobe Illustrator 29.7.1, SVG Export Plug-In . SVG Version: 2.1.1 Build 8)  -->
  <defs>
    <style>
      .st0 {
        stroke: #005b3a;
        stroke-miterlimit: 10;
        stroke-width: 5px;
      }

      .st0, .st1 {
        fill: #16666a;
      }
    </style>
  </defs>
  <path class="st1" d="M101.5,193.2h-12.1l-10.1-1.4C39.8,185,8.2,153.6,1.5,113.9L0,103.8c.2-4.1-.3-8.4,0-12.5C5.2,8.9,108-28.7,165.1,31.7c55.8,58.9,16.7,156.7-63.6,161.6ZM90.2,7.1C19.6,11.3-19.4,92.2,21.8,150.1c40.8,57.3,128.8,48.1,157-16.2C205.9,71.9,157.4,3,90.2,7.1Z"/>
  <path class="st0" d="M73.6,31.6c41.2-2.2,63.9,46.6,37.1,77.4l39.9,40c2.4,2.9-1.2,6-3.7,3.3l-39.7-39.7c-21.7,18.7-55.6,14.3-70.6-10.5-18.2-30,2.2-68.6,37.1-70.5ZM71.1,37c-19.3,2-35,19.1-36.1,38.3-2.1,35.8,39.9,57.6,67.6,34.3,31.2-26.3,9.7-76.8-31.5-72.6Z"/>
  <path class="st0" d="M78.1,51.3c-1.3,1.4-4.2.7-5.9,1-11.3,1.9-19.9,10.6-21.8,21.8s.7,6.9-3.1,6.4-2.1-4.6-1.9-6.4c.9-10.6,9.3-20.7,19-24.7,2.9-1.2,10.2-3.2,13-1.9s1.7,2.8.7,3.8Z"/>
</svg>