<?xml version="1.0" encoding="UTF-8"?>
<svg id="Layer_1" xmlns="http://www.w3.org/2000/svg" version="1.1" viewBox="0 0 278.1 195.2">
  <!-- Generator: Adobe Illustrator 29.7.1, SVG Export Plug-In . SVG Version: 2.1.1 Build 8)  -->
  <defs>
    <style>
      .st0 {
        fill: #16666a;
      }
    </style>
  </defs>
  <path class="st0" d="M269.5,84.7c-2.5,2.5-7,4.6-10.6,4.8l-241.4-.2c-6.8-1.7-11.4-6.3-13.1-13.1,1.6-17.5-2.8-41.2,0-58s7.8-12.5,14.4-13.3l242.1.2c7,1.7,11.8,6.6,13.2,13.7-1.3,17.8,2,38.7,0,56.1-.4,3.2-2.5,7.6-4.8,9.8h.2,0ZM20.4,19.9l-1.1,1.1v52.4l1.1,1.1h237.8l1.1-1.1V21l-1.1-1.1H20.4Z"/>
  <path class="st0" d="M269.5,181.3c-2.5,2.5-7,4.6-10.6,4.8l-241.4-.2c-6.8-1.7-11.4-6.3-13.1-13.1,1.6-17.5-2.8-41.2,0-58s7.8-12.5,14.4-13.3l242.1.2c7,1.7,11.8,6.6,13.2,13.7-1.3,17.8,2,38.7,0,56.1-.4,3.2-2.5,7.6-4.8,9.8h.2,0ZM20.4,116.4l-1.1,1.1v52.4l1.1,1.1h237.8l1.1-1.1v-52.4l-1.1-1.1H20.4Z"/>
  <path class="st0" d="M175.1,40.3c14.2-3.6,13.4,16.9,1.2,14.2s-7.5-12.6-1.2-14.2Z"/>
  <path class="st0" d="M244,41.8c7.3,7.5-4.8,17.9-11.4,10.3-6.9-8,5.4-16.4,11.4-10.3Z"/>
  <path class="st0" d="M205.1,40.2c14.2-4.2,14.2,18.1,0,13.9-5.6-1.6-5.6-12.3,0-13.9Z"/>
  <path class="st0" d="M175.1,136.8c14.2-3.6,13.4,16.9,1.2,14.2-7.7-1.7-7.5-12.6-1.2-14.2Z"/>
  <path class="st0" d="M244,138.4c7.3,7.5-4.8,17.9-11.4,10.3-6.9-8,5.4-16.4,11.4-10.3Z"/>
  <path class="st0" d="M205.1,136.8c14.2-4.2,14.2,18.1,0,13.9-5.6-1.6-5.6-12.3,0-13.9Z"/>
</svg>