<?xml version="1.0" encoding="UTF-8"?>
<svg id="Layer_1" xmlns="http://www.w3.org/2000/svg" version="1.1" viewBox="0 0 384 384">
  <!-- Generator: Adobe Illustrator 29.7.1, SVG Export Plug-In . SVG Version: 2.1.1 Build 8)  -->
  <path d="M322.2,181.6c-2.5,2.5-7,4.6-10.6,4.8l-241.4-.2c-6.8-1.7-11.4-6.3-13.1-13.1,1.6-17.5-2.8-41.2,0-58s7.8-12.5,14.4-13.3l242.1.2c7,1.7,11.8,6.6,13.2,13.7-1.3,17.8,2,38.7,0,56.1-.4,3.2-2.5,7.6-4.8,9.8ZM73.1,116.8l-1.1,1.1v52.4l1.1,1.1h237.8l1.1-1.1v-52.4l-1.1-1.1H73.1Z"/>
  <path d="M322.2,278.2c-2.5,2.5-7,4.6-10.6,4.8l-241.4-.2c-6.8-1.7-11.4-6.3-13.1-13.1,1.6-17.5-2.8-41.2,0-58s7.8-12.5,14.4-13.3l242.1.2c7,1.7,11.8,6.6,13.2,13.7-1.3,17.8,2,38.7,0,56.1-.4,3.2-2.5,7.6-4.8,9.8ZM73.1,213.3l-1.1,1.1v52.4l1.1,1.1h237.8l1.1-1.1v-52.4l-1.1-1.1H73.1Z"/>
  <path d="M227.8,137.2c14.2-3.6,13.4,16.9,1.2,14.2s-7.5-12.6-1.2-14.2Z"/>
  <path d="M296.7,138.7c7.3,7.5-4.8,17.9-11.4,10.3-6.9-8,5.4-16.4,11.4-10.3Z"/>
  <path d="M257.8,137.1c14.2-4.2,14.2,18.1,0,13.9-5.6-1.6-5.6-12.3,0-13.9Z"/>
  <path d="M227.8,233.7c14.2-3.6,13.4,16.9,1.2,14.2-7.7-1.7-7.5-12.6-1.2-14.2Z"/>
  <path d="M296.7,235.3c7.3,7.5-4.8,17.9-11.4,10.3-6.9-8,5.4-16.4,11.4-10.3Z"/>
  <path d="M257.8,233.7c14.2-4.2,14.2,18.1,0,13.9-5.6-1.6-5.6-12.3,0-13.9Z"/>
</svg>