<?xml version="1.0" encoding="UTF-8"?>
<svg id="Layer_1" xmlns="http://www.w3.org/2000/svg" version="1.1" viewBox="0 0 25.9 40.6">
  <!-- Generator: Adobe Illustrator 29.7.1, SVG Export Plug-In . SVG Version: 2.1.1 Build 8)  -->
  <defs>
    <style>
      .st0 {
        fill: #8b2f30;
      }
    </style>
  </defs>
  <path class="st0" d="M24.1,2c.8,1.2.3,2.5.1,3.7-1.1,5.2-4.5,8.5-10,7-.5,0-.3,2.6-.3,3.1,2.5-.2,8.3,1.4,8.7,4.3-.3,4,.4,8.1.2,11.9-.2,3.9-1.1,5.5-4.9,6.3s-13,.4-13.4-4.6.2-9.6.1-14.1c1.4-2.9,4.8-3.9,7.7-4,.8-.2,0-2.1-.9-2.4s-2.4.6-3.4.6c-3.4,0-5.7-3.9-6.4-6.9s.4,0,.5,0h3.9c.4,0,2.6.8,3.1,1,1,.4,1.7,1.1,2.3,2s.6,2.4,1.3,2.4-.2-2.1-.3-2.5c-.5-3.5,2.6-5.2,5.6-5.7s4.5.2,5.9-2.3h.3ZM22.7,5c-2.7.5-5.6.2-7.9,1.9-2.4,1.7-1.8,1.5-1.1,2.6s.3,0,.5-.1c.8-.5,1.2-1.5,2.3-1.6l.5.9c0,.6-2.6,2.1-2,2.6,4.4.8,7.2-2.1,7.8-6.3h-.1ZM10,10.9c-1.1-2.3-4.1-2.3-6.3-2.4.4,2.1,2.7,4.6,4.9,3.9l-.4-.3c-.2-1.4.6-1.2,1.7-1.2h.1ZM13.9,17.2v3.7c0,.4-1.3.4-1.3,0v-3.7c-.3-.4-1.2-.1-1.7,0-1.8.3-4.6,1.4-4.9,3.4.1,2.1,5.9,3.9,7.7,3.9s7.9-1.8,7.9-4.1-5.5-4.1-7.2-3.5l-.3.3h-.2ZM21.2,23.5c-3.8,2.5-8.9,2.9-13,1.2s-2.3-1.3-2.4-1.2c-.5,2.1,1.4,3.5,3.1,4.2,3.3,1.1,8.4,1,11.2-1.2s1.3-1.3,1.1-2.9h0ZM21.2,27.9c-1.3.5-2.5,1.3-3.9,1.6-2.8.8-5.4.6-8.2-.1s-2.3-1-3.3-1.5c-.4,2.3,1.3,3.4,3.1,4.2,3.9,1.4,9.3.9,12.5-1.9,0,0-.2-2.3-.2-2.3ZM5.7,32.4c-.4,3,3.5,4.4,6,4.6,3.4.3,7.3-.2,9.8-2.7-.5-.6-.3-1.3-.4-2-3.4,2.3-8.5,2.6-12.3,1.4s-2.9-1.3-3.1-1.2h.1Z"/>
</svg>