<?xml version="1.0" encoding="UTF-8"?>
<svg id="Layer_1" xmlns="http://www.w3.org/2000/svg" version="1.1" viewBox="0 0 45 45">
  <!-- Generator: Adobe Illustrator 29.7.1, SVG Export Plug-In . SVG Version: 2.1.1 Build 8)  -->
  <defs>
    <style>
      .st0 {
        fill: #fff;
      }
    </style>
  </defs>
  <path class="st0" d="M31.5,8c.3.3.2,1.5,0,1.9-.3,2.1-1.2,4.5-3.1,5.7s-3.3,1-5.1.6c-.3,0-.3,2.1-.3,2.5,2.3-.1,6.9,1.1,7.1,3.8-.2,3.5.3,7.4,0,10.8s-4.2,3.8-6.4,3.9-7.5-.4-8.4-3.6v-11.5c.9-2.6,4.1-3.3,6.6-3.5,0-.7,0-1.1-.4-1.5-.8-.8-1.2-.2-2.1,0-2.9.7-5-1.4-5.9-4s-.6-1.3.5-1.4c2.3-.3,6.1.3,7.1,2.7s0,1.3,1,1.6c.5-.5,0-1.1-.2-1.6-.7-3.1,1.8-4.6,4.5-5s3,0,3.9-.9.7-1.1,1.2-.5ZM30.4,9.9c-2.1.8-4.6.2-6.5,1.7s-1,1.4-.9,2.5c.5-.4,1.5-1.7,2.1-1.7s.6.5.4.9-2,1.6-1.7,1.8c1.4.2,2.8.2,4-.6s2.3-2.9,2.5-4.7ZM20,15.1c-.7-2.1-3.4-2.1-5.3-2.2.5,1.8,2.1,3.6,4.1,3.2,0-.3-.4-.2-.4-.6-.2-.9,1.1-.8,1.6-.5ZM21.9,19.8c-.7.1-1.4.2-2.1.4-2.9.8-5,2.9-1.2,4.6s5.9,1.1,8.3,0,3.2-2.5.7-3.9-2.9-1-4.5-1.1v3.1c0,0-.4.4-.6.4s-.6-.3-.6-.4v-3.1ZM29,25l-1.6.9c-2.6,1.2-6.5,1.2-9.2,0l-1.7-1v1.4c0,.3.6.9.8,1.1,2.3,2,8.5,2,10.8,0s.9-.9.9-1.2v-1.4ZM29,28.4c-3.5,2.5-9.1,2.5-12.5,0v1.5c0,.2.7,1,.9,1.1,2.3,1.9,7.4,1.8,10,.5s1.6-1.1,1.6-1.8v-1.4ZM29,31.9l-1.5.9c-2.7,1.3-6.9,1.2-9.6,0s-1-.6-1.5-.9v1.4c0,.5,1,1.3,1.4,1.6,2.6,1.5,7.3,1.5,9.8,0s1.3-1,1.3-1.6v-1.4Z"/>
</svg>