<?xml version="1.0" encoding="UTF-8"?>
<svg id="Layer_1" xmlns="http://www.w3.org/2000/svg" version="1.1" viewBox="0 0 96 96">
  <!-- Generator: Adobe Illustrator 29.7.1, SVG Export Plug-In . SVG Version: 2.1.1 Build 8)  -->
  <defs>
    <style>
      .st0 {
        fill: #fff;
      }
    </style>
  </defs>
  <path class="st0" d="M60.6,25.5l9.4,16.5c1-.2,1.6-1.1,2.7-1.1,1.8-.1,2.9,1.8,3.6,3.2s1,2.3-.2,3.7l-24,14.1c-1.9,1.1-3.2,1.3-4.6-.5s-2.3-3.5-1.1-5.2,2.1-1.2,2-1.7-2-3.7-2.3-4-.3-.4-.5-.4l-29.6,17.2c-1.4.4-2.2.2-3.1-.9s-2.8-4.1-1.1-5.8l30-17.6-2.6-4.8c-3.3,2.2-5,1-6.5-2.2s-.6-2.6.8-3.7l25-14.6c2.4-.5,3.3,1.2,4.2,3s.6,3.6-1.9,4.8ZM59.4,19.9l-24.8,14.2-.2.3c.2.6,1.3,2.7,1.8,2.7l24.4-14.2.4-.5-1.5-2.5ZM58.7,26.8l-17.8,10.4,9.4,16.2,17.8-10.1-9.4-16.5ZM73.1,43.1l-24.9,14.3c-.2.1-.2.3-.1.5,0,.3,1.5,2.6,1.7,2.6l24.8-14.4-1.5-3ZM44.4,48.1c.1-.2-1.2-2.6-1.4-2.8s-.1-.2-.2-.2h-.4c0,0-29.2,17-29.2,17-.2.3,1.2,3.3,2,2.9l29.2-17Z"/>
  <path class="st0" d="M84.3,78c-.3.2-.6.4-.9.5h-44.1c-.8,0-1.7-.8-1.9-1.6s-.2-3.2,0-4c.2-1.2,1.3-2.1,2.5-2.2h42.9c.8.1,1.4.5,1.9,1.1.8,1.2.8,5.1-.3,6.1ZM82.9,76.4v-3.1l-.3-.3h-42.8l-.3.3v3.1h43.3Z"/>
</svg>