<?xml version="1.0" encoding="UTF-8"?>
<svg id="Layer_1" xmlns="http://www.w3.org/2000/svg" version="1.1" viewBox="0 0 191.3 195.2">
  <!-- Generator: Adobe Illustrator 29.7.1, SVG Export Plug-In . SVG Version: 2.1.1 Build 8)  -->
  <defs>
    <style>
      .st0 {
        fill: #fff;
      }
    </style>
  </defs>
  <path class="st0" d="M147.2,90.2c-1,1.7-2.8,3-4.2,3.2H47.7c-2.7-1.3-4.5-4.3-5.2-8.8.6-11.6-1.1-27.3,0-38.4s3.1-8.3,5.7-8.8h95.6c2.8,1.3,4.7,4.5,5.2,9.2-.5,11.8.8,25.7,0,37.2-.2,2.1-1,5-1.9,6.5h0,0ZM48.8,47.2l-.4.7v34.7l.4.7h93.9l.4-.7v-34.7l-.4-.7H48.8Z"/>
  <path class="st0" d="M147.2,154.2c-1,1.7-2.8,3-4.2,3.2H47.7c-2.7-1.3-4.5-4.3-5.2-8.8.6-11.6-1.1-27.3,0-38.4s3.1-8.3,5.7-8.8h95.6c2.8,1.3,4.7,4.5,5.2,9.2-.5,11.8.8,25.7,0,37.2-.2,2.1-1,5-1.9,6.5h0,0ZM48.8,111.2l-.4.7v34.7l.4.7h93.9l.4-.7v-34.7l-.4-.7H48.8Z"/>
  <path class="st0" d="M89,60.7c8.9-2.4,8.4,11.2.8,9.4s-4.7-8.4-.8-9.4Z"/>
  <path class="st0" d="M132.4,61.7c4.6,5-3,11.9-7.2,6.8-4.3-5.3,3.4-10.9,7.2-6.8Z"/>
  <path class="st0" d="M107.9,60.7c8.9-2.8,8.9,12,0,9.2-3.5-1.1-3.5-8.2,0-9.2Z"/>
  <path class="st0" d="M89,124.7c8.9-2.4,8.4,11.2.8,9.4-4.9-1.1-4.7-8.4-.8-9.4Z"/>
  <path class="st0" d="M132.4,125.8c4.6,5-3,11.9-7.2,6.8-4.3-5.3,3.4-10.9,7.2-6.8Z"/>
  <path class="st0" d="M107.9,124.7c8.9-2.8,8.9,12,0,9.2-3.5-1.1-3.5-8.2,0-9.2Z"/>
  <path class="st0" d="M101.5,193.1h-12.1l-10.1-1.4C39.8,184.9,8.2,153.4,1.5,113.7L0,103.6c.2-4.1-.3-8.4,0-12.5C5.2,8.7,108-28.9,165.1,31.5c55.8,58.9,16.7,156.7-63.6,161.6ZM90.2,6.9C19.6,11.1-19.4,92,21.8,149.9c40.8,57.3,128.8,48.1,157-16.2S157.4,2.8,90.2,6.9Z"/>
</svg>