<?xml version="1.0" encoding="UTF-8"?>
<svg id="Layer_1" xmlns="http://www.w3.org/2000/svg" version="1.1" viewBox="0 0 384 384">
  <!-- Generator: Adobe Illustrator 29.7.1, SVG Export Plug-In . SVG Version: 2.1.1 Build 8)  -->
  <defs>
    <style>
      .st0 {
        fill: #fff;
      }
    </style>
  </defs>
  <path class="st0" d="M45.2,153.6c-12.3,43.8-3.6,93.3,22.3,130.5,4.6-.5,9.2-1.7,13.8-1.9,14.6-.9,33.3-.6,48.1,0s6.7,1.1,9.8,1.3c7.8-13.6,19.2-21.9,35.2-23,14.9-1,37.6-.9,52.6,0s28.1,8.9,35.9,23c3.1-.2,6.8-1.2,9.8-1.3,14.8-.6,33.4-.9,48.1,0s9.8,1.4,14.5,2.2c29.8-45.5,35.8-102.1,14.7-152.6-17.1-41-50.8-72.2-91.8-88.8-3.6-4.7-.3-8.7,5.4-7.6s19.3,8.7,24.8,11.9c88,52.1,110.8,170,48.1,251.3-69.9,90.5-208.4,87.3-274.7-5.7-28.4-39.8-37.9-90.4-27.3-138.2-10.5-8.8-18.7-18.8-21.4-32.6-5.6-29,13.8-59,35.4-76.5,33.3-26.9,79.5-35.1,117.6-12.6,3.7,2.2,12.6,7,6.2,11.8s-13.8,4.6-18.1,6.6c-41.4,19-32.1,59-61,83.6-13.3,11.3-31,15.8-47.9,18.5ZM157.5,38.9c-33.1-15.9-69.9-10.4-98.9,10.9S12.4,100,25.4,129.3s7.4,12.1,11,14.5.7,1.2,1.5,0c1.5-2.3,3.8-11.3,5.3-15,5-12,12.1-25.1,20-35.4,2.4-3.2,5.2-8.5,9.8-7.1,8.4,2.5-4.6,15.9-7,19.7-7.5,11.8-13.9,24.4-18,37.8,21.6-4.3,39.8-11.8,51.1-31.7,16.2-28.4,13.8-50.3,47.6-67.8,1-.5,11.6-4.2,10.8-5.3ZM231.7,352.6c0-24.5-4.4-51.9,20.9-65.6-2.5-9-13.8-15.8-22.8-16.7-14.1-1.4-42-1.2-56.3,0s-21.8,7.3-24.2,17.1c25.7,12.9,20.7,41.1,20.9,65.2,20.3,3.2,41.2,3.2,61.5,0ZM160.5,350.3v-33.3c0-.7-2.3-7.3-2.9-8.4-4.7-9.9-15.3-15.9-26-16.7-14.4-1.1-38.1-1-52.6,0-1.9.1-3.7.8-5.6.8,21.6,28.3,52.7,48,87,57.6ZM241.5,317.8c-1.2,10.1.9,22.3,0,32.6,34.3-9.3,65.6-29.3,87-57.6-1.9,0-3.7-.7-5.6-.8-14.5-1-37.3-1-51.8,0-14.3,1-27.8,11-29.6,25.9Z"/>
  <path class="st0" d="M196.3,182.8c46.3-6.3,41.3,62.8,8.7,67.1-36.8,4.9-47.6-61.9-8.7-67.1ZM201.5,191.9c-32,.4-22.5,54.2,4,48,18-4.2,23.9-48.4-4-48Z"/>
  <path class="st0" d="M101.8,204.6c45.1-5.4,40.6,66.4,4,67.5-33.8,1-43.7-62.7-4-67.5ZM101.8,214.3c-26.4,3.9-17.5,49.5,4.2,48.4,22.7-1.1,29.5-53.4-4.2-48.4Z"/>
  <path class="st0" d="M315.5,264c-12.8,13-32.1,9.4-41.6-5.5-15.2-23.9-2.7-58.7,29.2-53.8,27.4,4.2,29,42.4,12.4,59.3ZM308.7,257.2c10.6-10.6,12-39.2-5.7-42.8-23.7-4.9-31.4,19.1-22.2,37.1,5.7,11.1,18.4,15.2,27.9,5.7Z"/>
</svg>